<svg xmlns="http://www.w3.org/2000/svg" version="1.1" xmlns:xlink="http://www.w3.org/1999/xlink" xmlns:svgjs="http://svgjs.dev/svgjs" width="1000" height="154" viewBox="0 0 1000 154"><g transform="matrix(1,0,0,1,-0.6060533168286497,-0.35820346738221076)"><svg viewBox="0 0 396 61" data-background-color="#ffffff" preserveAspectRatio="xMidYMid meet" height="154" width="1000" xmlns="http://www.w3.org/2000/svg" xmlns:xlink="http://www.w3.org/1999/xlink"><g id="tight-bounds" transform="matrix(1,0,0,1,0.23999711346414188,0.14188595432861462)"><svg viewBox="0 0 395.52 60.71622078799859" height="60.71622078799859" width="395.52"><g><svg viewBox="0 0 503.20743397681656 77.24730396313365" height="60.71622078799859" width="395.52"><g><rect width="5.040695796391521" height="67.07435944700461" x="89.45119944641581" y="5.086472258064518" fill="#111111" opacity="1" stroke-width="0" stroke="transparent" fill-opacity="1" class="rect-o-0" data-fill-palette-color="primary" rx="1%" id="o-0" data-palette-color="#111111"></rect></g><g transform="matrix(1,0,0,1,107.68743397681655,10.676002211981569)"><svg viewBox="0 0 395.52 55.89529953917051" height="55.89529953917051" width="395.52"><g id="textblocktransform"><svg viewBox="0 0 395.52 55.89529953917051" height="55.89529953917051" width="395.52" id="textblock"><g><svg viewBox="0 0 395.52 55.89529953917051" height="55.89529953917051" width="395.52"><g transform="matrix(1,0,0,1,0,0)"><svg width="395.52" viewBox="1.7000000476837158 -35.79999923706055 260.3699951171875 36.79999923706055" height="55.89529953917051" data-palette-color="#111111"><path d="M11.8 0L1.7 0 1.7-34.8 22.15-34.8 21.15-27.8 11.8-27.8 11.8-20 20.05-20 20.05-12.95 11.8-12.95 11.8 0ZM23.75-34.8L33.85-34.8 33.85 0 23.75 0 23.75-34.8ZM35.74-34.8L61.09-34.8 60.09-27.3 53.25-27.3 53.25 0 43.14 0 43.14-27.3 35.74-27.3 35.74-34.8ZM70.49-34.8L95.84-34.8 94.84-27.3 87.99-27.3 87.99 0 77.89 0 77.89-27.3 70.49-27.3 70.49-34.8ZM114.34 0L108.69-12.45 107.34-12.45 107.34 0 97.24 0 97.24-34.8 108.84-34.8Q116.04-34.8 119.51-32.05 122.99-29.3 122.99-23.75L122.99-23.75Q122.99-17.35 117.59-14.4L117.59-14.4 125.19 0 114.34 0ZM107.34-27.9L107.34-19.25 109.04-19.25Q110.99-19.25 111.89-20.33 112.79-21.4 112.79-23.75L112.79-23.75Q112.79-25.9 111.76-26.9 110.74-27.9 108.74-27.9L108.74-27.9 107.34-27.9ZM152.89 0L142.49 0 141.34-6.85 134.34-6.85 133.19 0 122.94 0 131.94-34.8 143.94-34.8 152.89 0ZM137.79-27.75L135.49-13.85 140.14-13.85 137.79-27.75ZM167.78-35.8Q173.83-35.8 178.28-31.75L178.28-31.75 173.68-26.3Q172.33-27.4 171.11-27.98 169.88-28.55 168.48-28.55L168.48-28.55Q165.83-28.55 164.48-25.88 163.13-23.2 163.13-17.5L163.13-17.5Q163.13-11.8 164.48-9.2 165.83-6.6 168.53-6.6L168.53-6.6Q170.03-6.6 171.28-7.23 172.53-7.85 174.28-9.25L174.28-9.25 178.63-3.8Q176.58-1.65 173.83-0.33 171.08 1 167.78 1L167.78 1Q160.78 1 156.71-3.73 152.63-8.45 152.63-17.5L152.63-17.5Q152.63-23.3 154.53-27.43 156.43-31.55 159.86-33.68 163.28-35.8 167.78-35.8L167.78-35.8ZM180.18-34.8L190.28-34.8 190.28 0 180.18 0 180.18-34.8ZM199.08-34.8L209.08-34.8 200.63-19.3 209.93 0 198.78 0 190.58-18.55 199.08-34.8ZM210.63-34.8L231.83-34.8 230.83-27.8 220.73-27.8 220.73-21.05 229.63-21.05 229.63-14.25 220.73-14.25 220.73-7.1 231.53-7.1 231.53 0 210.63 0 210.63-34.8ZM251.23 0L245.58-12.45 244.23-12.45 244.23 0 234.13 0 234.13-34.8 245.73-34.8Q252.93-34.8 256.4-32.05 259.88-29.3 259.88-23.75L259.88-23.75Q259.88-17.35 254.48-14.4L254.48-14.4 262.07 0 251.23 0ZM244.23-27.9L244.23-19.25 245.93-19.25Q247.88-19.25 248.78-20.33 249.68-21.4 249.68-23.75L249.68-23.75Q249.68-25.9 248.65-26.9 247.63-27.9 245.63-27.9L245.63-27.9 244.23-27.9Z" opacity="1" transform="matrix(1,0,0,1,0,0)" fill="#111111" class="wordmark-text-0" data-fill-palette-color="primary" id="text-0"></path></svg></g></svg></g></svg></g></svg></g><g><svg viewBox="0 0 76.2556607124066 77.24730396313365" height="77.24730396313365" width="76.2556607124066"><g><svg xmlns="http://www.w3.org/2000/svg" xmlns:xlink="http://www.w3.org/1999/xlink" version="1.1" x="0" y="0" viewBox="1.6529935598373413 1.7594432830810547 46.654842376708984 47.26155090332031" enable-background="new 0 0 50 50" xml:space="preserve" height="77.24730396313365" width="76.2556607124066" class="icon-icon-0" data-fill-palette-color="accent" id="icon-0"><path d="M48.293 19.893c-0.058-0.754-0.346-1.961-0.903-2.195-0.547-0.229-1.443 0.079-1.775 0.24-0.105-0.065-0.261-0.159-0.383-0.228-0.225-0.127-0.695-0.061-1.018 0.278-0.162 0.17-0.241 0.379-0.23 0.604 0.016 0.307 0.216 0.618 0.41 0.919 0.167 0.26 0.376 0.584 0.327 0.749-0.025 0.083-0.137 0.147-0.227 0.187-0.877 0.384-2.299 0.386-3.554 0.389-0.875 0.001-1.644 0.003-2.197 0.12-0.956-1.617-1.022-3.181-1.087-4.694-0.095-2.209-0.184-4.298-3.108-5.973l0.159-0.325c0.161 0.066 0.297 0.155 0.438 0.247 0.322 0.209 0.688 0.447 1.445 0.466 0.601 0 1.168-0.281 1.641-0.813 0.92-1.034 1.445-3.005 1.248-4.688-0.234-2.008-2.184-3.608-4.297-3.398-1.036 0.104-1.978 0.633-2.651 1.49-0.709 0.903-1.023 2.084-0.862 3.24 0.097 0.684-0.095 1.396-0.497 1.859-0.405 0.467-0.994 0.673-1.733 0.572-0.483-0.064-0.919-0.095-1.33-0.095-1.382 0-2.353 0.358-3.696 0.854-0.977 0.361-2.194 0.81-3.947 1.257-0.707 0.18-1.222 0.606-1.451 1.198-0.527 1.361-2.038 8.446-1.987 9.658 0.045 1.038 1.67 1.727 2.726 1.727 0.334 0 0.586-0.071 0.748-0.212 0.468-0.406 0.621-1.181 0.669-1.559 0.304-0.054 0.664-0.224 0.729-0.625 0.092-0.565-0.16-0.987-0.748-1.254-0.196-0.087-0.486-0.043-0.757 0.017-0.139 0.031-0.282 0.063-0.393 0.063-0.102 0-0.126-0.027-0.133-0.036-0.023-0.026-0.093-0.144-0.036-0.556 0.088-0.633 0.39-1.161 0.772-1.829 0.44-0.77 0.983-1.719 1.327-3.141 0.263 0.022 0.511 0.033 0.739 0.033 0.958 0 1.487-0.189 1.999-0.373 0.378-0.136 0.738-0.265 1.274-0.305-0.256 1.339-0.024 2.883 0.201 4.379 0.339 2.252 0.659 4.38-0.813 5.28-2.064 1.262-3.009 2.685-3.923 4.061-1.173 1.766-2.281 3.436-5.679 4.74-1.204-1.215-3.027-1.641-4.792-2.052-0.877-0.205-1.705-0.398-2.447-0.681-0.569-0.217-1.034-0.687-1.444-1.101-0.448-0.451-0.834-0.841-1.287-0.841-0.528 0-0.869 0.538-1.079 0.942-0.745 1.434-2.867 4.619-2.888 4.651l-0.14 0.21 0.21 0.138c0.184 0.12 0.404 0.182 0.654 0.182 1.328 0 3.34-1.788 3.898-2.309l3.251 2.07c0.563 0.354 1.115 0.725 1.667 1.097 0.793 0.533 1.614 1.084 2.457 1.575 0.39 0.228 1.016 0.348 1.808 0.348 2.604 0 7.068-1.259 11.825-4.782 3.334 1.402 5.901 1.579 7.969 1.722 1.518 0.105 2.735 0.189 3.774 0.724-1.31 3.405-1.097 6.632-0.955 8.781 0.038 0.582 0.071 1.084 0.071 1.506 0 0.667-0.28 1.388-0.527 2.023-0.325 0.836-0.605 1.558-0.254 2.071 0.245 0.359 0.742 0.526 1.564 0.526h7.208l-0.01-0.26c-0.044-1.151-1.554-1.569-3.015-1.974-1.119-0.31-2.277-0.631-2.266-1.192 0.018-0.872 1.096-4.887 1.961-8.112 0.458-1.707 0.854-3.181 1.025-3.935 0.089-0.395-0.095-0.966-0.518-1.609-1.386-2.107-5.103-4.774-11.4-6.016 0.701-1.455 1.496-4.136 1.824-6.046 0.86 2.46 2.29 4.139 2.359 4.22 0.383 0.446 0.966 0.684 1.585 0.64 1.745-0.13 8.063-1.705 9.852-2.802C48.145 21.644 48.37 20.9 48.293 19.893z" fill="#787676" data-fill-palette-color="accent"></path><path d="M43.728 33.491" fill="#787676" data-fill-palette-color="accent"></path></svg></g></svg></g></svg></g><defs></defs></svg><rect width="395.52" height="60.71622078799859" fill="none" stroke="none" visibility="hidden"></rect></g></svg></g></svg>