<?xml version="1.0" standalone="no"?>
<!DOCTYPE svg PUBLIC "-//W3C//DTD SVG 20010904//EN"
 "http://www.w3.org/TR/2001/REC-SVG-20010904/DTD/svg10.dtd">
<svg version="1.0" xmlns="http://www.w3.org/2000/svg"
 width="840.000000pt" height="869.000000pt" viewBox="0 0 840.000000 869.000000"
 preserveAspectRatio="xMidYMid meet">

<g transform="translate(0.000000,869.000000) scale(0.100000,-0.100000)"
fill="#000000" stroke="none">
<path d="M224 8255 c-10 -15 -13 -32 -8 -47 4 -12 7 -45 8 -73 2 -70 38 -140
93 -178 27 -19 43 -39 43 -51 1 -69 64 -138 223 -246 69 -46 84 -62 95 -95 10
-31 26 -49 70 -79 63 -43 173 -165 216 -239 16 -26 58 -79 95 -116 54 -57 73
-70 108 -76 23 -3 47 -4 53 0 6 3 26 1 46 -5 30 -10 35 -15 29 -34 -4 -11 -13
-43 -21 -71 -24 -88 -67 -174 -86 -175 -10 0 -18 -4 -18 -9 0 -10 145 -157
189 -192 34 -27 68 -24 103 11 16 17 31 30 32 30 2 0 55 -69 119 -152 191
-252 275 -345 868 -964 175 -182 342 -350 373 -373 66 -51 111 -110 195 -256
35 -60 98 -162 139 -225 l75 -115 -2 -120 c-3 -155 11 -267 54 -418 45 -157
108 -285 177 -358 29 -31 63 -68 75 -83 23 -28 31 -30 51 -18 10 7 6 23 -17
73 -67 144 -116 414 -93 514 8 38 9 35 16 -45 24 -280 131 -595 228 -672 23
-18 47 -32 53 -31 6 2 9 -36 7 -111 -2 -62 1 -167 7 -232 18 -199 39 -386 51
-440 13 -59 2 -114 -51 -256 -60 -164 -138 -291 -387 -637 -74 -102 -152 -217
-175 -255 -97 -167 -206 -439 -267 -671 -35 -131 -70 -306 -70 -346 l0 -29
1491 0 c1190 0 1489 3 1482 13 -13 21 -23 114 -32 302 -6 110 -15 198 -25 225
-32 98 -67 255 -77 355 l-11 105 55 93 c59 100 130 236 131 252 1 6 16 40 34
78 41 83 85 114 302 216 47 22 126 71 177 110 50 38 110 79 132 91 35 18 47
33 88 118 46 95 48 100 51 205 3 61 -1 135 -8 169 l-11 60 33 32 c46 44 105
122 137 178 14 26 29 48 32 48 4 0 -6 -63 -22 -140 -38 -187 -24 -230 51 -157
93 90 198 308 255 532 l23 89 11 -39 c7 -22 14 -71 18 -110 7 -80 17 -108 41
-103 25 5 42 90 49 248 5 132 8 146 27 160 222 156 573 520 702 726 48 77 104
219 104 266 0 14 5 28 12 30 10 4 9 14 -2 49 -11 36 -42 72 -164 194 -148 147
-278 253 -476 385 -52 35 -122 87 -155 114 -33 28 -84 66 -112 85 -29 18 -53
34 -53 36 0 1 27 58 59 126 145 305 194 487 205 769 10 222 -24 398 -119 615
-79 182 -143 282 -288 452 -163 190 -358 326 -597 417 -163 61 -247 78 -425
83 -149 4 -167 3 -260 -22 -55 -15 -150 -39 -212 -55 -132 -33 -263 -89 -353
-150 -84 -56 -191 -163 -219 -218 -12 -24 -43 -71 -68 -105 -51 -69 -176 -321
-218 -439 -24 -67 -31 -78 -55 -83 -16 -4 -34 -13 -40 -20 -8 -9 -22 -12 -40
-8 -74 14 -108 -101 -54 -180 24 -35 24 -40 10 -56 -20 -22 -20 -58 -1 -95 15
-28 14 -32 -25 -100 -110 -191 -229 -307 -388 -377 -199 -86 -333 -178 -453
-308 l-69 -75 -113 110 c-178 175 -287 274 -342 311 -34 22 -69 59 -101 106
-178 261 -398 480 -789 786 -189 149 -324 271 -346 313 -24 47 -39 56 -56 32
-14 -18 -16 -18 -36 11 -43 58 -107 122 -141 140 -19 10 -37 27 -39 37 -7 24
-28 23 -34 -2 -3 -11 -9 -20 -13 -20 -5 0 -27 34 -50 75 -46 84 -86 135 -104
135 -7 0 -23 14 -35 31 -13 17 -59 71 -103 120 -69 77 -91 94 -171 135 -51 25
-186 97 -302 159 -251 135 -366 188 -420 191 -22 1 -57 9 -77 18 -53 23 -85
20 -104 -9z m128 -104 c4 -24 20 -64 34 -90 17 -27 21 -41 11 -33 -20 17 -87
138 -87 158 0 9 7 14 17 12 12 -2 20 -17 25 -47z m193 -16 c112 -46 113 -46
229 -128 114 -81 245 -150 315 -167 43 -10 62 -24 139 -103 98 -100 172 -187
193 -229 8 -14 26 -41 42 -60 60 -73 107 -138 107 -150 0 -28 -91 -196 -123
-227 -35 -33 -35 -33 -47 -11 -9 16 -9 25 0 36 7 7 10 20 7 28 -5 12 -26 14
-120 10 l-115 -6 -71 62 c-46 40 -80 79 -97 112 -16 31 -60 83 -115 136 -60
57 -86 88 -78 93 9 5 3 19 -20 48 -35 43 -60 56 -41 20 7 -11 10 -23 7 -25 -2
-2 -9 6 -16 19 -9 16 -9 30 -2 50 9 22 17 27 43 27 33 -1 40 -7 82 -71 16 -26
16 -28 -9 -57 -30 -36 -31 -42 -5 -42 12 0 28 13 40 33 25 40 25 37 -5 81
l-25 36 28 -15 c47 -27 121 -82 184 -139 61 -56 153 -101 182 -90 20 8 28 34
16 49 -6 7 -33 22 -60 34 -27 12 -54 30 -60 41 -6 11 -16 20 -22 20 -24 0 -99
43 -109 63 -7 11 -12 34 -13 50 -1 25 -11 36 -59 66 -263 164 -507 348 -507
382 0 4 25 -1 57 -12 68 -23 83 -24 83 -4 0 8 -7 15 -15 15 -18 0 -125 47
-125 54 0 11 18 6 105 -29z m175 -338 c58 -38 97 -66 87 -63 -10 3 -27 6 -37
6 -16 0 -180 125 -180 137 0 5 3 4 130 -80z m-219 6 c13 -16 12 -17 -3 -4 -10
7 -18 15 -18 17 0 8 8 3 21 -13z m5692 -18 c241 -43 484 -149 686 -301 55 -41
201 -200 201 -219 0 -20 -83 63 -97 97 -27 68 -130 140 -298 208 -54 23 -103
39 -109 37 -6 -2 27 -23 74 -47 103 -52 199 -110 263 -158 49 -38 66 -65 22
-36 -49 32 -33 8 33 -50 120 -105 222 -207 238 -239 12 -21 -6 -8 -58 46 -75
77 -123 106 -73 45 14 -18 59 -76 100 -129 41 -53 81 -99 89 -102 14 -6 50
-76 43 -83 -2 -2 -29 28 -60 66 -31 39 -62 70 -67 70 -13 0 -3 -19 62 -119 53
-80 114 -203 144 -286 13 -37 19 -91 22 -210 2 -88 2 -158 -1 -155 -3 3 -10
58 -16 122 -15 158 -29 192 -31 73 0 -88 -17 -221 -39 -319 -16 -66 -7 -68 18
-4 l22 53 -6 -55 c-9 -85 -41 -231 -70 -316 -40 -118 -143 -316 -164 -312 -14
3 -16 21 -14 148 3 157 12 253 44 457 29 189 20 216 -18 58 -46 -184 -63 -295
-72 -460 -4 -80 -10 -148 -13 -150 -23 -23 -58 52 -58 124 0 66 29 198 75 335
76 228 95 317 101 466 5 113 3 151 -14 234 -12 57 -28 106 -38 115 -15 15 -16
14 -10 -14 8 -45 20 -311 12 -304 -3 3 -10 30 -16 60 -15 77 -22 81 -109 71
-39 -5 -74 -5 -77 -1 -2 5 -2 19 1 32 7 26 -10 232 -21 260 -15 41 -24 -3 -24
-122 0 -142 -6 -191 -25 -191 -9 0 -11 20 -7 76 6 94 -12 95 -22 1 -4 -34 -10
-68 -14 -74 -6 -10 -85 -42 -104 -43 -5 0 -8 5 -8 11 0 6 -20 53 -45 105 -57
118 -154 229 -193 219 -24 -6 -24 -6 7 36 68 93 15 68 -60 -28 -29 -38 -75
-93 -101 -125 -37 -43 -59 -85 -94 -175 -76 -198 -104 -285 -116 -361 -9 -61
-13 -72 -27 -67 -70 27 -230 32 -239 8 -4 -15 -9 -13 120 -42 105 -24 231 -88
320 -162 26 -21 53 -39 60 -39 19 0 38 21 38 41 0 21 -90 104 -143 131 l-40
20 7 96 c10 144 18 202 27 202 5 0 9 -15 9 -33 0 -42 20 -70 65 -91 33 -16 41
-16 105 -2 38 9 73 16 78 16 6 0 -3 -41 -19 -91 -16 -50 -32 -110 -36 -134 -6
-44 7 -65 25 -42 8 10 61 166 91 267 7 23 89 79 116 80 6 0 21 -28 34 -62 l24
-62 -43 -130 c-23 -72 -45 -138 -48 -146 -5 -13 -4 -13 12 -1 24 20 43 58 75
158 l28 86 27 -35 c30 -40 30 -40 -40 -182 -37 -74 -40 -86 -22 -86 22 0 85
78 108 134 24 56 24 56 59 50 20 -4 37 -8 39 -9 1 -1 -13 -30 -32 -63 -19 -34
-37 -71 -41 -84 -5 -21 -3 -20 19 7 14 16 39 57 57 92 17 34 38 64 45 67 22 8
18 -2 -41 -108 -59 -106 -67 -130 -35 -101 34 31 78 107 115 200 20 50 42 97
50 105 7 8 22 33 33 55 29 54 27 29 -3 -61 -38 -114 -90 -210 -166 -306 -38
-49 -69 -92 -69 -98 0 -26 48 -2 108 53 17 17 32 29 32 26 0 -2 -7 -26 -15
-53 -8 -27 -15 -66 -15 -87 0 -49 -11 -55 -41 -23 -44 47 -91 64 -179 64 -79
0 -81 -1 -78 -22 3 -21 11 -24 77 -30 81 -8 122 -28 170 -84 26 -29 41 -64 28
-64 -2 0 -46 23 -98 51 -146 80 -314 163 -481 238 -84 37 -199 98 -256 135
-56 36 -109 66 -118 66 -8 0 -27 6 -42 14 -44 22 -99 27 -113 10 -11 -13 -30
2 -126 98 -62 62 -113 116 -113 121 0 5 -13 20 -30 33 l-30 26 31 38 c17 21
51 76 75 121 25 46 43 72 40 58 -14 -65 -26 -169 -26 -224 0 -109 32 -113 45
-6 23 196 74 372 171 605 30 71 54 136 54 144 0 43 -128 -189 -185 -333 -15
-38 -42 -88 -60 -110 -18 -22 -54 -74 -80 -115 -86 -136 -96 -149 -111 -143
-21 8 -18 15 25 69 68 86 130 186 151 242 12 30 19 56 17 58 -2 2 -27 -34 -55
-80 -41 -67 -107 -157 -178 -245 -5 -6 -242 116 -306 157 -32 20 -58 41 -58
46 0 11 117 180 198 286 91 118 176 212 250 275 64 55 68 76 10 52 -94 -39
-256 -217 -411 -449 -87 -130 -108 -151 -122 -128 -7 12 85 182 190 351 40 64
81 131 90 150 l18 34 -23 -20 c-67 -59 -216 -279 -295 -435 -24 -47 -28 -51
-42 -38 -13 14 -11 24 18 94 47 112 140 245 293 418 63 71 66 97 8 69 -70 -34
-246 -259 -344 -441 -41 -76 -53 -92 -69 -87 -10 3 -32 -1 -49 -10 -28 -14
-31 -14 -36 0 -10 26 82 254 168 414 114 212 278 376 473 474 104 52 286 105
445 130 66 11 283 6 363 -8z m-4460 -544 l80 -78 -27 -59 c-63 -141 -128 -243
-197 -311 -23 -24 -49 -43 -58 -43 -23 0 -68 -44 -91 -90 -11 -22 -23 -40 -25
-40 -3 0 -39 35 -80 77 l-74 77 57 65 c31 36 91 100 133 141 80 79 127 160
164 283 10 31 22 57 28 57 5 0 46 -35 90 -79z m2972 -527 c16 -4 26 -16 30
-35 14 -64 202 -229 365 -322 36 -20 76 -45 90 -56 23 -19 24 -21 8 -37 -15
-16 -20 -15 -65 11 -26 16 -112 78 -190 137 -130 100 -171 139 -260 246 -36
42 -44 78 -17 68 9 -3 26 -9 39 -12z m-95 -38 c14 -32 41 -67 128 -167 19 -21
116 -102 217 -180 158 -123 182 -145 174 -161 -9 -17 -14 -15 -67 18 -69 43
-134 93 -145 111 -4 7 -43 39 -85 72 -126 97 -300 278 -289 299 2 4 7 15 10
25 11 29 41 20 57 -17z m365 -68 c72 -45 140 -87 153 -95 13 -8 59 -30 103
-48 104 -45 309 -204 426 -332 49 -52 92 -102 98 -111 25 -44 -2 -275 -42
-354 -16 -33 -20 -33 -51 -10 -22 17 -22 19 -7 47 41 80 -51 257 -125 238 -10
-3 -31 2 -48 11 -72 37 -162 38 -162 2 0 -13 55 -39 130 -61 35 -10 130 -105
130 -130 0 -34 -13 -42 -78 -48 -73 -8 -130 10 -233 72 -35 21 -89 49 -119 62
-70 29 -102 51 -167 113 -40 38 -53 58 -53 78 0 65 66 38 136 -54 71 -95 95
-118 147 -145 54 -27 84 -27 101 0 9 15 6 23 -17 43 -27 23 -28 26 -14 47 27
41 72 83 135 125 91 63 81 98 -21 68 -81 -24 -132 -66 -154 -126 -10 -27 -20
-50 -23 -50 -3 0 -22 16 -43 36 -43 40 -43 42 5 137 16 32 47 76 69 98 22 22
39 48 37 57 -2 8 -28 35 -58 59 -30 24 -68 56 -85 72 -16 16 -52 40 -80 55
-86 45 -198 129 -232 174 -66 87 -37 81 142 -30z m-170 -288 c72 -57 165 -127
207 -157 87 -61 91 -65 82 -87 -5 -14 -13 -11 -43 17 -20 18 -57 43 -81 55
-25 12 -60 35 -78 52 -19 17 -70 58 -115 92 -142 108 -206 175 -191 199 4 7
23 -5 48 -29 22 -21 100 -86 171 -142z m-180 14 c14 -9 25 -22 25 -28 0 -22
-118 -192 -186 -268 -38 -42 -111 -124 -162 -181 -51 -58 -110 -117 -132 -132
-58 -40 -218 -209 -290 -305 -34 -47 -64 -87 -66 -89 -5 -5 -53 52 -59 72 -16
44 429 493 569 575 84 48 186 141 186 169 0 9 11 31 25 49 31 40 31 47 3 38
-22 -7 -22 -6 -5 17 9 13 27 41 39 62 12 20 23 37 25 37 2 0 15 -7 28 -16z
m69 -53 c13 -21 -56 -179 -120 -275 -41 -61 -136 -141 -193 -161 l-42 -14 19
27 c11 15 30 36 42 47 66 60 270 344 270 377 0 11 17 10 24 -1z m1442 -148
c-16 -16 -21 13 -12 64 l11 58 3 -59 c2 -32 1 -60 -2 -63z m-1293 23 c41 -32
47 -58 22 -107 -14 -27 -14 -31 0 -46 10 -9 13 -22 9 -32 -27 -62 -58 -156
-70 -211 -50 -222 -70 -350 -55 -350 5 0 17 33 26 73 22 90 97 346 121 414
l18 51 66 -51 c68 -53 109 -95 110 -112 0 -6 -13 -45 -29 -86 -45 -117 -101
-394 -101 -500 0 -54 4 -90 11 -95 19 -11 27 14 33 105 14 181 122 575 154
558 4 -2 15 -7 24 -10 15 -5 14 -14 -12 -90 -16 -47 -34 -113 -40 -148 -6 -35
-20 -89 -30 -120 -53 -157 -73 -528 -36 -679 16 -66 45 -258 45 -300 0 -8 -10
12 -23 45 -12 33 -41 90 -64 127 -69 112 -90 210 -101 463 -10 258 -37 284
-41 40 -2 -102 -3 -114 -12 -80 -17 71 -2 295 31 455 17 80 33 156 36 170 4
16 3 22 -3 15 -31 -32 -124 -431 -153 -656 -6 -51 -8 -156 -4 -269 l6 -185
-52 95 c-54 100 -99 171 -131 206 -33 37 -50 154 -42 292 5 97 11 128 25 146
23 29 24 40 4 56 -35 29 -177 -98 -254 -230 -21 -36 -52 -101 -67 -145 l-29
-80 -3 50 c-4 56 14 156 35 198 42 84 145 227 193 266 100 84 190 230 234 383
13 46 36 153 50 238 34 193 35 198 50 179 6 -8 28 -28 49 -43z m-168 -164
c-37 -206 -36 -203 -101 -231 -71 -31 -192 -143 -279 -260 -36 -47 -94 -144
-130 -215 -36 -71 -65 -127 -65 -124 0 13 83 244 102 286 14 29 60 85 118 143
84 84 131 124 285 243 22 17 33 32 28 37 -11 11 -93 -12 -131 -37 -15 -9 10
22 56 69 45 48 82 93 82 101 0 12 49 116 55 116 1 0 -8 -58 -20 -128z m1443
-132 c6 -113 -66 -258 -191 -384 -48 -49 -86 -94 -83 -101 2 -7 -2 -21 -9 -32
-13 -17 -17 -16 -89 22 -42 22 -76 43 -76 47 0 25 53 146 84 191 39 56 98 218
116 318 6 33 19 68 28 78 16 17 22 15 117 -35 l99 -52 4 -52z m-2199 -138
c-68 -70 -144 -153 -169 -185 -25 -31 -49 -56 -53 -57 -5 0 -22 14 -39 32
l-29 31 63 65 c84 86 156 140 258 195 47 26 87 47 89 47 2 0 -52 -58 -120
-128z m521 74 c0 -2 -8 -10 -17 -17 -16 -13 -17 -12 -4 4 13 16 21 21 21 13z
m-60 -49 c0 -2 -12 -14 -27 -28 l-28 -24 24 28 c23 25 31 32 31 24z m-136 -63
c-29 -31 -70 -78 -91 -105 -21 -28 -39 -45 -41 -39 -9 27 -83 -53 -189 -207
-43 -62 -52 -71 -67 -60 -14 11 -10 20 40 82 74 94 232 254 322 326 40 33 75
59 77 59 2 0 -21 -25 -51 -56z m1053 7 c35 -21 75 -33 153 -45 136 -22 154
-36 145 -117 -4 -36 -3 -59 4 -63 6 -4 8 -20 4 -36 -12 -62 -2 -73 128 -134
90 -42 124 -54 134 -46 7 6 25 35 39 64 45 91 37 95 208 -80 84 -87 226 -230
315 -319 l162 -162 -97 -46 c-152 -73 -362 -114 -638 -124 l-151 -6 -56 37
c-138 92 -332 333 -458 571 l-53 99 33 161 c37 183 61 275 72 275 4 0 29 -13
56 -29z m-1044 -66 c-3 -9 -8 -14 -10 -11 -3 3 -2 9 2 15 9 16 15 13 8 -4z
m-23 -28 c0 -2 -12 -14 -27 -28 l-28 -24 24 28 c23 25 31 32 31 24z m-92 -105
c-30 -33 -101 -135 -153 -220 -31 -50 -41 -60 -52 -50 -18 15 -19 14 82 167
67 101 90 129 100 121 9 -7 16 -6 25 5 7 9 15 13 18 10 3 -3 -6 -18 -20 -33z
m-38 -176 c-11 -26 -27 -72 -36 -102 -8 -29 -18 -54 -20 -54 -5 0 -46 20 -53
26 -2 2 25 43 60 93 35 49 65 88 67 87 1 -2 -7 -24 -18 -50z m124 -108 c-9
-17 -22 -50 -28 -72 -9 -30 -18 -42 -34 -44 -12 -2 -22 -1 -22 3 0 13 41 85
48 85 4 0 16 14 25 30 24 40 32 39 11 -2z m258 -110 c-2 -40 -6 -74 -7 -76 -1
-1 -20 8 -43 21 l-40 23 45 52 c25 29 46 52 48 52 1 0 0 -33 -3 -72z m372
-244 c20 -77 21 -71 -8 -76 -31 -6 -36 10 -36 119 0 101 12 140 21 68 4 -27
14 -78 23 -111z m-323 -28 c23 -65 53 -121 106 -196 40 -58 91 -143 114 -190
22 -47 46 -96 53 -110 6 -14 18 -25 26 -25 12 0 15 17 16 80 1 44 6 109 12
145 7 36 12 84 12 108 0 23 3 42 8 42 14 0 72 -96 126 -210 66 -136 96 -245
89 -312 -5 -44 -3 -48 21 -59 14 -7 29 -9 34 -5 4 4 9 87 12 184 l5 177 44
-65 c103 -155 351 -733 351 -820 0 -26 -3 -28 -45 -32 -33 -2 -70 7 -146 35
-55 21 -122 41 -149 44 -46 5 -48 7 -97 82 -28 42 -108 175 -178 296 -265 457
-465 779 -572 917 -67 87 -54 100 46 47 l79 -42 33 -91z m662 94 c28 -22 69
-66 92 -98 55 -75 102 -122 124 -122 9 0 35 -18 56 -41 22 -22 61 -53 86 -70
l47 -30 3 -121 4 -121 49 -43 49 -43 -35 -6 c-20 -4 -49 -15 -65 -25 -34 -20
-68 -83 -58 -108 5 -14 11 -12 33 15 16 19 49 40 80 52 l53 19 -5 -41 c-21
-166 -39 -281 -52 -332 -25 -101 -46 -157 -54 -148 -5 4 -24 53 -43 108 -137
393 -231 589 -369 774 -45 60 -60 90 -39 76 25 -15 137 -177 201 -292 40 -70
75 -130 78 -133 3 -3 2 11 -2 30 -12 63 -123 278 -185 358 -63 82 -60 71 -91
265 -6 34 -13 74 -16 90 -3 15 -3 27 1 27 4 0 30 -18 58 -40z m1475 -233 c8
-9 5 -41 -9 -112 -16 -80 -19 -132 -17 -257 3 -146 -4 -196 -14 -103 -3 22
-17 80 -31 129 -15 49 -31 127 -37 174 -10 88 -19 110 -40 97 -18 -11 -7 -160
18 -255 12 -47 17 -83 12 -96 -5 -12 -5 -39 0 -60 4 -22 13 -66 19 -100 6 -33
38 -134 72 -224 51 -139 61 -176 66 -249 3 -58 1 -96 -8 -116 -12 -30 -12 -29
-20 35 -15 122 -46 230 -67 230 -4 0 -14 -23 -21 -50 -20 -79 -104 -182 -196
-244 -62 -41 -71 -34 -36 28 52 93 75 179 75 286 1 128 -34 231 -132 394 -23
39 -32 61 -24 64 18 6 14 29 -13 77 -36 61 -87 203 -75 210 14 9 30 -3 30 -22
0 -24 114 -257 118 -244 2 7 -17 70 -42 140 -25 71 -46 131 -46 135 0 3 8 6
18 6 13 0 29 -24 57 -86 21 -48 46 -94 55 -103 8 -9 31 -54 50 -101 43 -108
110 -244 117 -237 3 3 -20 74 -51 157 -31 83 -68 193 -82 243 -14 51 -29 104
-34 119 -10 32 -16 28 86 62 45 15 101 40 125 56 50 32 62 35 77 17z m70 -168
c-8 -62 -8 -104 -1 -150 8 -47 7 -66 -1 -71 -22 -15 -26 -7 -26 50 0 87 22
274 32 264 4 -4 3 -46 -4 -93z m-379 19 l-1 -43 -14 33 c-14 33 -12 52 7 52 5
0 9 -19 8 -42z m-679 -74 c0 -30 -4 -54 -10 -54 -6 0 -10 27 -10 61 0 37 4 58
10 54 6 -3 10 -31 10 -61z m430 -29 c18 -47 48 -111 66 -141 l33 -54 -29 17
c-16 9 -28 19 -25 21 2 2 -9 28 -25 56 -27 47 -70 157 -70 178 0 4 4 8 8 8 5
0 23 -38 42 -85z m-84 -13 c12 -48 20 -88 19 -90 -1 -1 -13 2 -27 7 -20 8 -27
20 -36 67 -17 81 -15 104 6 104 13 0 22 -19 38 -88z m761 41 c-3 -10 -5 -2 -5
17 0 19 2 27 5 18 2 -10 2 -26 0 -35z m-873 -17 c3 -30 8 -61 12 -69 4 -11 -1
-13 -19 -10 -26 5 -37 34 -37 99 0 27 4 34 19 34 15 0 19 -10 25 -54z m-104
-6 c0 -47 -1 -49 -22 -41 -18 6 -24 17 -26 50 -3 38 -1 41 22 41 24 0 26 -3
26 -50z m-2440 -217 c1 -168 17 -278 40 -278 13 0 15 25 12 170 -3 157 -2 168
13 150 13 -17 16 -44 13 -160 -2 -77 0 -180 4 -230 l7 -90 -34 71 c-81 169
-137 456 -109 562 6 22 7 22 30 -12 23 -33 24 -44 24 -183z m3419 103 c-9 -8
-10 -7 -5 7 3 10 7 37 8 60 2 41 2 41 5 -7 3 -30 0 -53 -8 -60z m166 95 c3 -5
1 -12 -5 -16 -5 -3 -10 1 -10 9 0 18 6 21 15 7z m-1183 -105 c125 -26 239 -64
336 -111 83 -42 97 -53 142 -113 27 -37 53 -78 56 -91 19 -69 -178 -535 -255
-605 -19 -18 -21 -17 -54 3 -19 11 -41 21 -49 21 -8 0 -33 9 -56 20 -23 11
-57 23 -75 27 -38 8 -124 46 -151 68 -20 15 -20 16 3 68 27 61 34 86 56 187
28 132 47 272 52 376 l5 101 -56 32 c-52 29 -76 51 -42 38 8 -3 48 -13 88 -21z
m-2169 -313 c8 -16 22 -67 31 -115 22 -114 55 -222 100 -332 20 -49 35 -91 32
-94 -9 -8 -91 173 -120 263 -24 74 -66 259 -66 291 0 21 8 17 23 -13z m144
-305 c-3 -8 -6 -5 -6 6 -1 11 2 17 5 13 3 -3 4 -12 1 -19z m3543 -272 c0 -24
-3 -58 -7 -76 -6 -32 -6 -32 -24 26 -17 54 -17 60 -2 76 25 28 33 22 33 -26z
m-141 -108 c-29 -104 -85 -251 -130 -338 -41 -81 -94 -166 -85 -137 3 10 11
48 18 85 7 44 21 79 38 102 40 51 73 122 110 235 18 55 37 106 43 113 22 28
25 8 6 -60z m-114 -86 c-20 -49 -43 -98 -50 -108 -13 -17 -14 -15 -14 26 1 66
29 137 64 160 16 10 31 18 33 16 1 -2 -13 -44 -33 -94z m-108 -16 c-13 -12
-46 -64 -72 -115 -26 -50 -49 -90 -51 -88 -2 2 12 40 31 84 19 45 35 88 35 97
0 18 73 69 78 54 2 -5 -7 -19 -21 -32z m-113 -68 c-23 -45 -27 -48 -18 -13 6
25 20 44 32 45 1 0 -5 -15 -14 -32z m-68 -30 c-18 -38 -105 -139 -106 -123 0
6 9 16 20 23 11 6 31 36 46 64 15 29 31 59 37 66 18 22 19 5 3 -30z m4 -99
c-16 -29 -82 -101 -88 -95 -4 4 88 116 96 116 1 0 -2 -9 -8 -21z m-26 -137
c-63 -58 -69 -38 -7 25 33 33 49 43 52 33 2 -8 -18 -34 -45 -58z"/>
<path d="M5900 7723 c-62 -6 -159 -34 -172 -50 -11 -14 -8 -15 27 -10 22 4 99
10 172 13 105 5 150 3 223 -11 97 -19 126 -15 66 10 -77 32 -235 57 -316 48z"/>
<path d="M5810 7634 c-204 -31 -358 -88 -505 -187 -107 -72 -239 -217 -197
-217 4 0 47 31 95 69 169 134 283 200 435 251 93 31 239 60 303 60 43 0 52 14
17 24 -24 6 -105 6 -148 0z"/>
<path d="M6330 7595 c0 -3 26 -22 58 -42 31 -19 83 -53 115 -75 72 -48 88 -41
27 12 -79 68 -200 131 -200 105z"/>
<path d="M6360 7536 c0 -2 38 -31 85 -64 47 -34 85 -58 85 -53 0 9 -67 73
-107 99 -27 19 -63 29 -63 18z"/>
<path d="M6470 7401 c0 -4 27 -27 59 -49 109 -77 125 -67 20 12 -60 45 -79 54
-79 37z"/>
<path d="M6186 7098 c-28 -43 -75 -156 -96 -230 -23 -82 -24 -96 -10 -82 11
11 130 327 125 332 -2 2 -10 -7 -19 -20z"/>
<path d="M5882 6913 c-51 -110 -85 -213 -112 -342 -29 -136 -20 -150 13 -19
14 58 53 181 87 273 33 92 59 169 57 171 -2 2 -22 -35 -45 -83z"/>
<path d="M6012 6873 c-80 -176 -122 -353 -122 -523 0 -99 5 -130 21 -130 10 0
15 30 29 190 12 138 47 308 86 422 38 109 43 128 35 128 -5 0 -26 -39 -49 -87z"/>
<path d="M1352 6788 c-7 -7 -12 -24 -12 -39 0 -21 7 -29 29 -37 35 -12 51 0
51 38 0 29 -16 50 -40 50 -9 0 -21 -5 -28 -12z"/>
<path d="M5682 5806 c1 -10 8 -17 13 -17 15 1 12 24 -3 29 -9 3 -13 -2 -10
-12z"/>
<path d="M5757 5452 c-21 -23 -22 -46 -2 -62 37 -30 105 29 75 65 -17 20 -53
19 -73 -3z"/>
<path d="M5720 5223 c-33 -6 -108 -97 -137 -165 -49 -116 -22 -252 65 -330 68
-61 101 -71 237 -72 136 -1 203 12 287 57 81 42 125 84 142 137 18 53 17 55
-79 120 -121 81 -467 265 -486 259 -2 -1 -15 -4 -29 -6z m130 -112 c124 -49
377 -203 399 -243 14 -25 14 -29 -8 -51 -58 -63 -246 -113 -392 -105 -76 5
-92 9 -130 36 -61 42 -85 71 -98 117 -15 55 -14 92 5 154 16 55 88 146 108
137 6 -2 58 -23 116 -45z"/>
</g>
</svg>
